<?xml version="1.0" encoding="UTF-8" standalone="no"?>
<!DOCTYPE svg PUBLIC "-//W3C//DTD SVG 1.1//EN" "http://www.w3.org/Graphics/SVG/1.1/DTD/svg11.dtd">
<svg xmlns:dc="http://purl.org/dc/elements/1.1/" xmlns="http://www.w3.org/2000/svg" version="1.1" xmlns:xl="http://www.w3.org/1999/xlink" viewBox="443.3262 370.1945 168.57942 123.69171" width="168.57942" height="123.69171">
  <defs/>
  <metadata> Produced by OmniGraffle 7.18.1\n2020-12-12 02:35:08 +0000</metadata>
  <g id="Canvas_1" stroke-opacity="1" stroke="none" stroke-dasharray="none" fill="none" fill-opacity="1">
    <title>Canvas 1</title>
    <g id="Canvas_1_Layer_1">
      <title>Layer 1</title>
      <g id="Group_2">
        <g id="Graphic_20">
          <path d="M 501.09065 416.52516 C 501.09065 405.7022 509.86435 396.9285 520.68725 396.92853 C 531.51025 396.9285 540.28395 405.7022 540.28385 416.52516 C 540.28395 427.3481 531.51025 436.1218 520.68725 436.1218 C 509.86435 436.1218 501.09065 427.3481 501.09065 416.52516" stroke="#fc0006" stroke-linecap="round" stroke-linejoin="round" stroke-width="7.838661"/>
        </g>
        <g id="Graphic_19">
          <path d="M 496.43765 440.7748 C 494.90705 439.2442 492.42545 439.2442 490.89485 440.7748 L 444.47415 487.1955 C 442.94355 488.7261 442.94355 491.20765 444.47415 492.73825 C 446.00475 494.26884 448.48635 494.26884 450.01695 492.73825 L 496.43765 446.31755 C 497.96825 444.78695 497.96825 442.30537 496.43765 440.7748 Z" fill="red"/>
        </g>
        <g id="Graphic_18">
          <path d="M 513.11505 449.03983 C 511.58445 447.50924 509.10285 447.50924 507.57225 449.03983 L 472.10875 484.50334 C 470.57815 486.0339 470.57815 488.5155 472.10875 490.0461 C 473.63935 491.5767 476.12095 491.5767 477.65155 490.0461 L 513.11505 454.5826 C 514.64565 453.052 514.64565 450.57043 513.11505 449.03983 Z" fill="red"/>
        </g>
        <g id="Graphic_17">
          <path d="M 489.42995 424.2257 C 487.89935 422.6951 485.41775 422.6951 483.88715 424.2257 L 447.85915 460.2537 C 446.32855 461.7843 446.32855 464.2659 447.85915 465.7965 C 449.38975 467.3271 451.87135 467.3271 453.40195 465.7965 L 489.42995 429.7685 C 490.96055 428.2379 490.96055 425.7563 489.42995 424.2257 Z" fill="red"/>
        </g>
        <g id="Graphic_16">
          <path d="M 554.68505 433.3107 C 553.41515 441.32795 545.88655 446.79784 537.86925 445.52803" stroke="#3ad" stroke-linecap="round" stroke-linejoin="round" stroke-width="7.838661"/>
        </g>
        <g id="Graphic_15">
          <path d="M 554.29925 396.23216 L 555.09665 396.23216 C 557.04105 396.23216 558.61725 397.8084 558.61725 399.75277 C 558.61725 401.69715 557.04105 403.2734 555.09665 403.2734 L 554.29925 403.2734 C 552.35485 403.2734 550.77855 401.69715 550.77855 399.75277 C 550.77855 397.8084 552.35485 396.23216 554.29925 396.23216 Z" fill="#3ad"/>
        </g>
        <g id="Graphic_14">
          <path d="M 554.69795 434.72417 C 556.86255 434.72417 558.61725 432.9694 558.61725 430.80484 L 558.61725 414.849 C 558.61725 412.6844 556.86255 410.92965 554.69795 410.92965 C 552.53335 410.92965 550.77855 412.6844 550.77855 414.849 L 550.77855 430.80484 C 550.77855 432.9694 552.53335 434.72417 554.69795 434.72417 Z" fill="#3ad"/>
        </g>
        <g id="Graphic_13">
          <path d="M 479.11645 388.8113 C 484.85625 394.55103 494.16215 394.55103 499.90185 388.8113" stroke="#3ad" stroke-linecap="round" stroke-linejoin="round" stroke-width="7.838661"/>
        </g>
        <g id="Graphic_12">
          <path d="M 531.07995 378.4186 C 525.34025 372.67888 516.03425 372.67888 510.29455 378.4186" stroke="#3ad" stroke-linecap="round" stroke-linejoin="round" stroke-width="7.838661"/>
        </g>
        <g id="Graphic_11">
          <path d="M 498.05425 390.6589 C 499.58485 392.1895 502.06645 392.1895 503.59705 390.6589 L 511.91125 382.34474 C 513.44185 380.81415 513.44185 378.33256 511.91125 376.80197 C 510.38065 375.27138 507.89905 375.27138 506.36845 376.80197 L 498.05425 385.1161 C 496.52365 386.6467 496.52365 389.1283 498.05425 390.6589 Z" fill="#3ad"/>
        </g>
        <g id="Graphic_10">
          <path d="M 479.11645 388.8113 C 484.85625 394.55103 484.85625 403.85697 479.11645 409.5967" stroke="#3ad" stroke-linecap="round" stroke-linejoin="round" stroke-width="7.838661"/>
        </g>
        <g id="Graphic_9">
          <path d="M 480.96405 407.7491 C 482.49465 409.2797 482.49465 411.7613 480.96405 413.2919 L 456.94545 437.31054 C 455.41485 438.84114 452.93325 438.84114 451.40265 437.31054 C 449.87205 435.77995 449.87205 433.29837 451.40265 431.7678 L 475.42135 407.7491 C 476.95195 406.2185 479.43345 406.2185 480.96405 407.7491 Z" fill="#3ad"/>
        </g>
        <g id="Group_3">
          <g id="Graphic_8">
            <path d="M 602.54815 403.91183 C 594.8992 396.26283 582.49765 396.26283 574.8487 403.91183" stroke="#fc0006" stroke-linecap="round" stroke-linejoin="round" stroke-width="7.838661"/>
          </g>
          <g id="Graphic_7">
            <path d="M 574.8487 403.6961 C 567.1997 411.34506 567.1997 423.7466 574.8487 431.39557" stroke="#fc0006" stroke-linecap="round" stroke-linejoin="round" stroke-width="7.838661"/>
          </g>
          <g id="Graphic_6">
            <path d="M 574.8487 431.43834 C 582.49765 439.08733 594.8992 439.08733 602.54815 431.43834" stroke="#fc0006" stroke-linecap="round" stroke-linejoin="round" stroke-width="7.838661"/>
          </g>
          <g id="Graphic_5">
            <path d="M 586.4684 419.0917 C 586.4684 421.2563 588.22314 423.011 590.3877 423.011 L 606.3436 423.011 C 608.5082 423.011 610.2629 421.2563 610.2629 419.0917 C 610.2629 416.9271 608.5082 415.1723 606.3436 415.1723 L 590.3877 415.1723 C 588.22314 415.1723 586.4684 416.9271 586.4684 419.0917 Z" fill="#fc0006"/>
          </g>
          <g id="Graphic_4">
            <path d="M 586.7673 437.04655 C 597.5434 437.98936 607.0435 430.0178 607.9863 419.2417" stroke="#fc0006" stroke-linecap="round" stroke-linejoin="round" stroke-width="7.838661"/>
          </g>
        </g>
      </g>
    </g>
  </g>
</svg>
