<?xml version="1.0" encoding="UTF-8" standalone="no"?>
<!DOCTYPE svg PUBLIC "-//W3C//DTD SVG 1.1//EN" "http://www.w3.org/Graphics/SVG/1.1/DTD/svg11.dtd">
<svg xmlns="http://www.w3.org/2000/svg" xmlns:xl="http://www.w3.org/1999/xlink" version="1.1" xmlns:dc="http://purl.org/dc/elements/1.1/" viewBox="297.07107 285.10808 388.92893 281.82085" width="388.92893" height="281.82085">
  <defs/>
  <metadata> Produced by OmniGraffle 7.17.4\n2020-04-14 01:10:41 +0000</metadata>
  <g id="Canvas_1" fill-opacity="1" stroke="none" stroke-dasharray="none" stroke-opacity="1" fill="none">
    <title>Canvas 1</title>
    <rect fill="white" x="297.07107" y="285.10808" width="388.92893" height="281.82085"/>
    <g id="Canvas_1_Layer_1">
      <title>Layer 1</title>
      <g id="Group_22">
        <g id="Graphic_15">
          <path d="M 386.42893 435.07106 L 320.57106 500.92893 C 316.6658 504.8342 310.33416 504.8342 306.42892 500.92893 L 306.42892 500.92893 C 302.52368 497.0237 302.52368 490.69204 306.42892 486.7868 L 372.2868 420.9289 C 376.19204 417.0237 382.5237 417.0237 386.42893 420.9289 L 386.42893 420.9289 C 390.33418 424.83416 390.33418 431.1658 386.42893 435.07106 Z" fill="#ff2600"/>
        </g>
        <g id="Graphic_2">
          <title>Adjustable Arc</title>
          <path d="M 624 400 L 671.2708 408.3351 C 666.6674 434.44204 641.7718 451.87413 615.6649 447.27077 C 589.55796 442.6674 572.1259 417.7718 576.7292 391.6649 C 581.3326 365.55796 606.2282 348.12587 632.3351 352.72923 C 639.2378 353.94635 645.7901 356.66042 651.5317 360.6807 L 624 400 Z" fill="white"/>
          <path d="M 624 400 L 671.2708 408.3351 C 666.6674 434.44204 641.7718 451.87413 615.6649 447.27077 C 589.55796 442.6674 572.1259 417.7718 576.7292 391.6649 C 581.3326 365.55796 606.2282 348.12587 632.3351 352.72923 C 639.2378 353.94635 645.7901 356.66042 651.5317 360.6807 L 624 400 Z" stroke="#ff2600" stroke-linecap="round" stroke-linejoin="round" stroke-width="20"/>
        </g>
        <g id="Graphic_7">
          <circle cx="464" cy="400" r="48.000076699291" stroke="#ff2600" stroke-linecap="round" stroke-linejoin="round" stroke-width="20"/>
        </g>
        <g id="Graphic_8">
          <path d="M 544 379 L 544 379 C 549.52285 379 554 383.47715 554 389 L 554 433 C 554 438.52285 549.52285 443 544 443 L 544 443 C 538.47715 443 534 438.52285 534 433 L 534 389 C 534 383.47715 538.47715 379 544 379 Z" fill="#00a0ff"/>
        </g>
        <g id="Graphic_9">
          <title>Adjustable Arc</title>
          <path d="M 496 432 L 544 432 C 544 458.50967 522.50967 480 496 480 L 496 432 Z" stroke="#00a0ff" stroke-linecap="round" stroke-linejoin="round" stroke-width="20"/>
        </g>
        <g id="Graphic_10">
          <path d="M 544 348 L 544 348 C 549.52285 348 554 352.47715 554 358 L 554 358 C 554 363.52285 549.52285 368 544 368 L 544 368 C 538.47715 368 534 363.52285 534 358 L 534 358 C 534 352.47715 538.47715 348 544 348 Z" fill="#00a0ff"/>
        </g>
        <g id="Graphic_11">
          <path d="M 632 396 L 672 396 C 677.52285 396 682 400.47715 682 406 L 682 406 C 682 411.52285 677.52285 416 672 416 L 632 416 C 626.47715 416 622 411.52285 622 406 L 622 406 C 622 400.47715 626.47715 396 632 396 Z" fill="#ff2600"/>
        </g>
        <g id="Graphic_12">
          <path d="M 408.92893 469.2132 L 318.14214 560 C 314.2369 563.90524 307.90524 563.90524 304 560 L 304 560 C 300.09476 556.09476 300.09476 549.7631 304 545.85786 L 394.7868 455.07107 C 398.69204 451.1658 405.0237 451.1658 408.92893 455.07107 L 408.92893 455.07107 C 412.83418 458.9763 412.83418 465.30796 408.92893 469.2132 Z" fill="#ff2600"/>
        </g>
        <g id="Graphic_13">
          <path d="M 444 490.14213 L 378.14214 556 C 374.2369 559.90525 367.90525 559.90525 364 556 L 364 556 C 360.09476 552.09476 360.09476 545.7631 364 541.8579 L 429.8579 476 C 433.7631 472.09475 440.09477 472.09475 444 476 L 444 476 C 447.90526 479.90524 447.90526 486.2369 444 490.14213 Z" fill="#ff2600"/>
        </g>
        <g id="Group_21">
          <g id="Graphic_16">
            <title>Adjustable Arc</title>
            <path d="M 355.52008 347.7251 L 378.1475 325.09767 C 390.64427 337.59445 390.64427 357.85573 378.1475 370.3525 L 355.52008 347.7251 Z" stroke="#00a0ff" stroke-linecap="round" stroke-linejoin="round" stroke-width="20"/>
          </g>
          <g id="Graphic_17">
            <title>Adjustable Arc</title>
            <path d="M 400.7749 302.47026 L 423.40233 325.09767 C 410.90555 337.59445 390.64427 337.59445 378.1475 325.09767 L 400.7749 302.47026 Z" stroke="#00a0ff" stroke-linecap="round" stroke-linejoin="round" stroke-width="20"/>
          </g>
          <g id="Graphic_18">
            <path d="M 304.25483 430.10303 L 367.89444 366.4634 C 371.7997 362.55818 378.13134 362.55818 382.0366 366.4634 C 382.0366 366.4634 382.0366 366.4634 382.0366 366.4634 L 382.0366 366.4634 C 385.9418 370.36866 385.9418 376.7003 382.0366 380.60556 L 318.39697 444.24517 C 314.49173 448.1504 308.16008 448.1504 304.25483 444.24517 C 304.25483 444.24517 304.25483 444.24517 304.25483 444.24517 L 304.25483 444.24517 C 300.3496 440.3399 300.3496 434.00827 304.25483 430.10303 Z" fill="#00a0ff"/>
          </g>
          <g id="Graphic_19">
            <title>Adjustable Arc</title>
            <path d="M 462.64675 331.1081 L 440.01934 308.48066 C 452.5161 295.9839 472.7774 295.9839 485.27417 308.48066 L 462.64675 331.1081 Z" stroke="#00a0ff" stroke-linecap="round" stroke-linejoin="round" stroke-width="20"/>
          </g>
          <g id="Graphic_20">
            <path d="M 417.3919 316.96595 L 431.53405 302.8238 C 435.4393 298.91857 441.77095 298.91857 445.6762 302.8238 L 445.6762 302.8238 C 449.58143 306.72905 449.58143 313.0607 445.6762 316.96595 L 431.53405 331.1081 C 427.6288 335.01332 421.29716 335.01332 417.3919 331.1081 L 417.3919 331.1081 C 413.4867 327.20284 413.4867 320.8712 417.3919 316.96595 Z" fill="#00a0ff"/>
          </g>
        </g>
      </g>
    </g>
  </g>
</svg>
